<svg width="499" height="204" viewBox="0 0 499 204" fill="none" xmlns="http://www.w3.org/2000/svg">
<g filter="url(#filter0_d_14_949)">
<path d="M4.14844 162.469C4.14844 161.078 4.41406 159.773 4.94531 158.555C5.47656 157.336 6.19531 156.273 7.10156 155.367C8.02344 154.445 9.09375 153.719 10.3125 153.188C11.5312 152.656 12.8359 152.391 14.2266 152.391H29.6484V159.117H14.2266C13.7578 159.117 13.3203 159.203 12.9141 159.375C12.5078 159.547 12.1484 159.789 11.8359 160.102C11.5391 160.398 11.3047 160.75 11.1328 161.156C10.9609 161.562 10.875 162 10.875 162.469C10.875 162.938 10.9609 163.383 11.1328 163.805C11.3047 164.211 11.5391 164.57 11.8359 164.883C12.1484 165.18 12.5078 165.414 12.9141 165.586C13.3203 165.758 13.7578 165.844 14.2266 165.844H20.9531C22.3438 165.844 23.6484 166.109 24.8672 166.641C26.1016 167.156 27.1719 167.875 28.0781 168.797C29 169.703 29.7188 170.773 30.2344 172.008C30.7656 173.227 31.0312 174.531 31.0312 175.922C31.0312 177.312 30.7656 178.617 30.2344 179.836C29.7188 181.055 29 182.125 28.0781 183.047C27.1719 183.953 26.1016 184.672 24.8672 185.203C23.6484 185.734 22.3438 186 20.9531 186H6.02344V179.273H20.9531C21.4219 179.273 21.8594 179.188 22.2656 179.016C22.6719 178.844 23.0234 178.609 23.3203 178.312C23.6328 178 23.875 177.641 24.0469 177.234C24.2188 176.828 24.3047 176.391 24.3047 175.922C24.3047 175.453 24.2188 175.016 24.0469 174.609C23.875 174.203 23.6328 173.852 23.3203 173.555C23.0234 173.242 22.6719 173 22.2656 172.828C21.8594 172.656 21.4219 172.57 20.9531 172.57H14.2266C12.8359 172.57 11.5312 172.305 10.3125 171.773C9.09375 171.242 8.02344 170.523 7.10156 169.617C6.19531 168.695 5.47656 167.625 4.94531 166.406C4.41406 165.172 4.14844 163.859 4.14844 162.469ZM56.7188 165.891L52.0312 170.602C51.7969 169.945 51.4766 169.359 51.0703 168.844C50.6641 168.312 50.2031 167.867 49.6875 167.508C49.1875 167.148 48.6406 166.875 48.0469 166.688C47.4531 166.5 46.8438 166.406 46.2188 166.406C45.3438 166.406 44.5156 166.586 43.7344 166.945C42.9688 167.305 42.2969 167.812 41.7188 168.469C41.1562 169.109 40.7109 169.875 40.3828 170.766C40.0547 171.656 39.8906 172.641 39.8906 173.719C39.8906 174.594 40.0547 175.414 40.3828 176.18C40.7109 176.945 41.1562 177.617 41.7188 178.195C42.2969 178.773 42.9688 179.227 43.7344 179.555C44.5156 179.883 45.3438 180.047 46.2188 180.047C46.8438 180.047 47.4453 179.961 48.0234 179.789C48.6016 179.617 49.1406 179.375 49.6406 179.062C50.1562 178.734 50.6094 178.344 51 177.891C51.4062 177.422 51.7344 176.906 51.9844 176.344L56.6719 181.055C56.0781 181.898 55.3906 182.656 54.6094 183.328C53.8438 184 53.0078 184.57 52.1016 185.039C51.2109 185.508 50.2656 185.859 49.2656 186.094C48.2812 186.344 47.2656 186.469 46.2188 186.469C44.4531 186.469 42.7891 186.141 41.2266 185.484C39.6797 184.812 38.3203 183.898 37.1484 182.742C35.9922 181.586 35.0781 180.234 34.4062 178.688C33.7344 177.141 33.3984 175.484 33.3984 173.719C33.3984 171.797 33.7344 170 34.4062 168.328C35.0781 166.656 35.9922 165.203 37.1484 163.969C38.3203 162.719 39.6797 161.734 41.2266 161.016C42.7891 160.297 44.4531 159.938 46.2188 159.938C47.2656 159.938 48.2891 160.07 49.2891 160.336C50.3047 160.602 51.2656 160.992 52.1719 161.508C53.0938 162.008 53.9375 162.625 54.7031 163.359C55.4844 164.094 56.1562 164.938 56.7188 165.891ZM83.7891 186H82.2422L79.7578 182.555C79.1484 183.102 78.5 183.617 77.8125 184.102C77.1406 184.57 76.4297 184.984 75.6797 185.344C74.9297 185.688 74.1562 185.961 73.3594 186.164C72.5781 186.367 71.7812 186.469 70.9688 186.469C69.2031 186.469 67.5391 186.172 65.9766 185.578C64.4297 184.984 63.0703 184.125 61.8984 183C60.7422 181.859 59.8281 180.469 59.1562 178.828C58.4844 177.188 58.1484 175.32 58.1484 173.227C58.1484 171.273 58.4844 169.484 59.1562 167.859C59.8281 166.219 60.7422 164.812 61.8984 163.641C63.0703 162.469 64.4297 161.562 65.9766 160.922C67.5391 160.266 69.2031 159.938 70.9688 159.938C71.7812 159.938 72.5859 160.039 73.3828 160.242C74.1797 160.445 74.9531 160.727 75.7031 161.086C76.4531 161.445 77.1641 161.867 77.8359 162.352C78.5234 162.836 79.1641 163.359 79.7578 163.922L82.2422 160.945H83.7891V186ZM77.3438 173.227C77.3438 172.352 77.1719 171.508 76.8281 170.695C76.5 169.867 76.0469 169.141 75.4688 168.516C74.8906 167.875 74.2109 167.367 73.4297 166.992C72.6641 166.602 71.8438 166.406 70.9688 166.406C70.0938 166.406 69.2656 166.555 68.4844 166.852C67.7188 167.148 67.0469 167.586 66.4688 168.164C65.9062 168.742 65.4609 169.461 65.1328 170.32C64.8047 171.164 64.6406 172.133 64.6406 173.227C64.6406 174.32 64.8047 175.297 65.1328 176.156C65.4609 177 65.9062 177.711 66.4688 178.289C67.0469 178.867 67.7188 179.305 68.4844 179.602C69.2656 179.898 70.0938 180.047 70.9688 180.047C71.8438 180.047 72.6641 179.859 73.4297 179.484C74.2109 179.094 74.8906 178.586 75.4688 177.961C76.0469 177.32 76.5 176.594 76.8281 175.781C77.1719 174.953 77.3438 174.102 77.3438 173.227ZM95.8125 186L86.25 160.898H93.5391L99.0234 176.555L104.484 160.898H111.797L102.234 186H95.8125ZM123.469 179.859C123.719 179.938 123.969 179.992 124.219 180.023C124.469 180.039 124.719 180.047 124.969 180.047C125.594 180.047 126.195 179.961 126.773 179.789C127.352 179.617 127.891 179.375 128.391 179.062C128.906 178.734 129.359 178.344 129.75 177.891C130.156 177.422 130.484 176.906 130.734 176.344L135.422 181.055C134.828 181.898 134.141 182.656 133.359 183.328C132.594 184 131.758 184.57 130.852 185.039C129.961 185.508 129.016 185.859 128.016 186.094C127.031 186.344 126.016 186.469 124.969 186.469C123.203 186.469 121.539 186.141 119.977 185.484C118.43 184.828 117.07 183.914 115.898 182.742C114.742 181.57 113.828 180.18 113.156 178.57C112.484 176.945 112.148 175.164 112.148 173.227C112.148 171.242 112.484 169.43 113.156 167.789C113.828 166.148 114.742 164.75 115.898 163.594C117.07 162.438 118.43 161.539 119.977 160.898C121.539 160.258 123.203 159.938 124.969 159.938C126.016 159.938 127.039 160.062 128.039 160.312C129.039 160.562 129.984 160.922 130.875 161.391C131.781 161.859 132.625 162.438 133.406 163.125C134.188 163.797 134.875 164.555 135.469 165.398L123.469 179.859ZM126.75 166.664C126.453 166.555 126.156 166.484 125.859 166.453C125.578 166.422 125.281 166.406 124.969 166.406C124.094 166.406 123.266 166.57 122.484 166.898C121.719 167.211 121.047 167.664 120.469 168.258C119.906 168.852 119.461 169.57 119.133 170.414C118.805 171.242 118.641 172.18 118.641 173.227C118.641 173.461 118.648 173.727 118.664 174.023C118.695 174.32 118.734 174.625 118.781 174.938C118.844 175.234 118.914 175.523 118.992 175.805C119.07 176.086 119.172 176.336 119.297 176.555L126.75 166.664ZM145.102 186H138.703V160.898H140.25L142.359 163.336C143.391 162.398 144.555 161.68 145.852 161.18C147.164 160.664 148.531 160.406 149.953 160.406C151.484 160.406 152.93 160.703 154.289 161.297C155.648 161.875 156.836 162.68 157.852 163.711C158.867 164.727 159.664 165.922 160.242 167.297C160.836 168.656 161.133 170.109 161.133 171.656V186H154.734V171.656C154.734 171 154.609 170.383 154.359 169.805C154.109 169.211 153.766 168.695 153.328 168.258C152.891 167.82 152.383 167.477 151.805 167.227C151.227 166.977 150.609 166.852 149.953 166.852C149.281 166.852 148.648 166.977 148.055 167.227C147.461 167.477 146.945 167.82 146.508 168.258C146.07 168.695 145.727 169.211 145.477 169.805C145.227 170.383 145.102 171 145.102 171.656V186ZM183.562 173.227C183.562 172.352 183.391 171.508 183.047 170.695C182.719 169.867 182.266 169.141 181.688 168.516C181.109 167.875 180.43 167.367 179.648 166.992C178.883 166.602 178.062 166.406 177.188 166.406C176.312 166.406 175.484 166.555 174.703 166.852C173.938 167.148 173.266 167.586 172.688 168.164C172.125 168.742 171.68 169.461 171.352 170.32C171.023 171.164 170.859 172.133 170.859 173.227C170.859 174.273 171.023 175.219 171.352 176.062C171.68 176.891 172.125 177.602 172.688 178.195C173.266 178.789 173.938 179.25 174.703 179.578C175.484 179.891 176.312 180.047 177.188 180.047C178.062 180.047 178.883 179.859 179.648 179.484C180.43 179.094 181.109 178.586 181.688 177.961C182.266 177.32 182.719 176.594 183.047 175.781C183.391 174.953 183.562 174.102 183.562 173.227ZM190.008 182.836C190.008 184.602 189.672 186.258 189 187.805C188.328 189.352 187.406 190.703 186.234 191.859C185.078 193.016 183.719 193.93 182.156 194.602C180.609 195.273 178.953 195.609 177.188 195.609L173.977 195.562V189.164L177.141 189.211C178.141 189.211 178.992 189.078 179.695 188.812C180.398 188.562 180.992 188.211 181.477 187.758C181.961 187.32 182.344 186.812 182.625 186.234C182.922 185.656 183.156 185.047 183.328 184.406C183.078 184.812 182.719 185.148 182.25 185.414C181.781 185.664 181.258 185.867 180.68 186.023C180.117 186.195 179.523 186.312 178.898 186.375C178.289 186.438 177.719 186.469 177.188 186.469C175.422 186.469 173.758 186.164 172.195 185.555C170.648 184.945 169.289 184.078 168.117 182.953C166.961 181.812 166.047 180.422 165.375 178.781C164.703 177.141 164.367 175.289 164.367 173.227C164.367 171.336 164.703 169.578 165.375 167.953C166.047 166.328 166.961 164.922 168.117 163.734C169.289 162.547 170.648 161.617 172.195 160.945C173.758 160.273 175.422 159.938 177.188 159.938C178 159.938 178.805 160.039 179.602 160.242C180.398 160.445 181.172 160.727 181.922 161.086C182.672 161.445 183.383 161.867 184.055 162.352C184.742 162.836 185.383 163.359 185.977 163.922L188.461 160.945H190.008V182.836ZM204.891 179.859C205.141 179.938 205.391 179.992 205.641 180.023C205.891 180.039 206.141 180.047 206.391 180.047C207.016 180.047 207.617 179.961 208.195 179.789C208.773 179.617 209.312 179.375 209.812 179.062C210.328 178.734 210.781 178.344 211.172 177.891C211.578 177.422 211.906 176.906 212.156 176.344L216.844 181.055C216.25 181.898 215.562 182.656 214.781 183.328C214.016 184 213.18 184.57 212.273 185.039C211.383 185.508 210.438 185.859 209.438 186.094C208.453 186.344 207.438 186.469 206.391 186.469C204.625 186.469 202.961 186.141 201.398 185.484C199.852 184.828 198.492 183.914 197.32 182.742C196.164 181.57 195.25 180.18 194.578 178.57C193.906 176.945 193.57 175.164 193.57 173.227C193.57 171.242 193.906 169.43 194.578 167.789C195.25 166.148 196.164 164.75 197.32 163.594C198.492 162.438 199.852 161.539 201.398 160.898C202.961 160.258 204.625 159.938 206.391 159.938C207.438 159.938 208.461 160.062 209.461 160.312C210.461 160.562 211.406 160.922 212.297 161.391C213.203 161.859 214.047 162.438 214.828 163.125C215.609 163.797 216.297 164.555 216.891 165.398L204.891 179.859ZM208.172 166.664C207.875 166.555 207.578 166.484 207.281 166.453C207 166.422 206.703 166.406 206.391 166.406C205.516 166.406 204.688 166.57 203.906 166.898C203.141 167.211 202.469 167.664 201.891 168.258C201.328 168.852 200.883 169.57 200.555 170.414C200.227 171.242 200.062 172.18 200.062 173.227C200.062 173.461 200.07 173.727 200.086 174.023C200.117 174.32 200.156 174.625 200.203 174.938C200.266 175.234 200.336 175.523 200.414 175.805C200.492 176.086 200.594 176.336 200.719 176.555L208.172 166.664ZM226.523 186H220.125V160.898H221.672L223.781 163.875C224.812 162.938 225.984 162.219 227.297 161.719C228.609 161.203 229.969 160.945 231.375 160.945H237.023V167.32H231.375C230.703 167.32 230.07 167.445 229.477 167.695C228.883 167.945 228.367 168.289 227.93 168.727C227.492 169.164 227.148 169.68 226.898 170.273C226.648 170.867 226.523 171.5 226.523 172.172V186ZM260.859 186H254.133V152.391H260.859V165.844H274.289V152.391H281.016V186H274.289V172.57H260.859V186ZM304.711 183.07C304.195 183.539 303.641 183.984 303.047 184.406C302.469 184.812 301.859 185.172 301.219 185.484C300.578 185.781 299.914 186.016 299.227 186.188C298.555 186.375 297.867 186.469 297.164 186.469C295.617 186.469 294.164 186.195 292.805 185.648C291.445 185.102 290.25 184.328 289.219 183.328C288.203 182.312 287.398 181.086 286.805 179.648C286.227 178.195 285.938 176.57 285.938 174.773V160.898H292.312V174.773C292.312 175.617 292.438 176.375 292.688 177.047C292.953 177.703 293.305 178.258 293.742 178.711C294.18 179.164 294.688 179.508 295.266 179.742C295.859 179.977 296.492 180.094 297.164 180.094C297.82 180.094 298.438 179.945 299.016 179.648C299.609 179.336 300.125 178.93 300.562 178.43C301 177.93 301.344 177.367 301.594 176.742C301.844 176.102 301.969 175.445 301.969 174.773V160.898H308.367V186H306.82L304.711 183.07ZM319.664 186H313.266V160.898H314.812L316.922 163.336C317.953 162.398 319.117 161.68 320.414 161.18C321.727 160.664 323.094 160.406 324.516 160.406C326.047 160.406 327.492 160.703 328.852 161.297C330.211 161.875 331.398 162.68 332.414 163.711C333.43 164.727 334.227 165.922 334.805 167.297C335.398 168.656 335.695 170.109 335.695 171.656V186H329.297V171.656C329.297 171 329.172 170.383 328.922 169.805C328.672 169.211 328.328 168.695 327.891 168.258C327.453 167.82 326.945 167.477 326.367 167.227C325.789 166.977 325.172 166.852 324.516 166.852C323.844 166.852 323.211 166.977 322.617 167.227C322.023 167.477 321.508 167.82 321.07 168.258C320.633 168.695 320.289 169.211 320.039 169.805C319.789 170.383 319.664 171 319.664 171.656V186ZM352.523 186C350.977 186 349.523 185.711 348.164 185.133C346.805 184.539 345.609 183.734 344.578 182.719C343.562 181.688 342.758 180.492 342.164 179.133C341.586 177.773 341.297 176.32 341.297 174.773V167.32H338.18V160.945H341.297V150.914H347.672V160.945H357.375V167.32H347.672V174.773C347.672 175.445 347.797 176.078 348.047 176.672C348.297 177.25 348.641 177.758 349.078 178.195C349.516 178.633 350.031 178.984 350.625 179.25C351.219 179.5 351.852 179.625 352.523 179.625H357.375V186H352.523ZM401.859 182.602C400.297 183.93 398.555 184.953 396.633 185.672C394.711 186.375 392.711 186.727 390.633 186.727C389.039 186.727 387.5 186.516 386.016 186.094C384.547 185.688 383.172 185.109 381.891 184.359C380.609 183.594 379.438 182.688 378.375 181.641C377.312 180.578 376.406 179.406 375.656 178.125C374.906 176.828 374.32 175.438 373.898 173.953C373.492 172.469 373.289 170.93 373.289 169.336C373.289 167.742 373.492 166.211 373.898 164.742C374.32 163.273 374.906 161.898 375.656 160.617C376.406 159.32 377.312 158.148 378.375 157.102C379.438 156.039 380.609 155.133 381.891 154.383C383.172 153.633 384.547 153.055 386.016 152.648C387.5 152.227 389.039 152.016 390.633 152.016C392.711 152.016 394.711 152.375 396.633 153.094C398.555 153.797 400.297 154.812 401.859 156.141L398.344 162C397.328 160.969 396.156 160.164 394.828 159.586C393.5 158.992 392.102 158.695 390.633 158.695C389.164 158.695 387.781 158.977 386.484 159.539C385.203 160.102 384.078 160.867 383.109 161.836C382.141 162.789 381.375 163.914 380.812 165.211C380.25 166.492 379.969 167.867 379.969 169.336C379.969 170.82 380.25 172.211 380.812 173.508C381.375 174.805 382.141 175.938 383.109 176.906C384.078 177.875 385.203 178.641 386.484 179.203C387.781 179.766 389.164 180.047 390.633 180.047C391.477 180.047 392.297 179.945 393.094 179.742C393.891 179.539 394.648 179.258 395.367 178.898V169.336H401.859V182.602ZM430.664 186H429.117L426.633 182.555C426.023 183.102 425.375 183.617 424.688 184.102C424.016 184.57 423.305 184.984 422.555 185.344C421.805 185.688 421.031 185.961 420.234 186.164C419.453 186.367 418.656 186.469 417.844 186.469C416.078 186.469 414.414 186.172 412.852 185.578C411.305 184.984 409.945 184.125 408.773 183C407.617 181.859 406.703 180.469 406.031 178.828C405.359 177.188 405.023 175.32 405.023 173.227C405.023 171.273 405.359 169.484 406.031 167.859C406.703 166.219 407.617 164.812 408.773 163.641C409.945 162.469 411.305 161.562 412.852 160.922C414.414 160.266 416.078 159.938 417.844 159.938C418.656 159.938 419.461 160.039 420.258 160.242C421.055 160.445 421.828 160.727 422.578 161.086C423.328 161.445 424.039 161.867 424.711 162.352C425.398 162.836 426.039 163.359 426.633 163.922L429.117 160.945H430.664V186ZM424.219 173.227C424.219 172.352 424.047 171.508 423.703 170.695C423.375 169.867 422.922 169.141 422.344 168.516C421.766 167.875 421.086 167.367 420.305 166.992C419.539 166.602 418.719 166.406 417.844 166.406C416.969 166.406 416.141 166.555 415.359 166.852C414.594 167.148 413.922 167.586 413.344 168.164C412.781 168.742 412.336 169.461 412.008 170.32C411.68 171.164 411.516 172.133 411.516 173.227C411.516 174.32 411.68 175.297 412.008 176.156C412.336 177 412.781 177.711 413.344 178.289C413.922 178.867 414.594 179.305 415.359 179.602C416.141 179.898 416.969 180.047 417.844 180.047C418.719 180.047 419.539 179.859 420.305 179.484C421.086 179.094 421.766 178.586 422.344 177.961C422.922 177.32 423.375 176.594 423.703 175.781C424.047 174.953 424.219 174.102 424.219 173.227ZM467.484 186H461.109V170.062C461.109 169.625 461.023 169.211 460.852 168.82C460.695 168.43 460.469 168.086 460.172 167.789C459.875 167.492 459.531 167.266 459.141 167.109C458.75 166.938 458.336 166.852 457.898 166.852C457.461 166.852 457.047 166.938 456.656 167.109C456.281 167.266 455.945 167.492 455.648 167.789C455.367 168.086 455.141 168.43 454.969 168.82C454.812 169.211 454.734 169.625 454.734 170.062V186H448.336V170.062C448.336 169.625 448.25 169.211 448.078 168.82C447.922 168.43 447.695 168.086 447.398 167.789C447.102 167.492 446.758 167.266 446.367 167.109C445.977 166.938 445.562 166.852 445.125 166.852C444.688 166.852 444.273 166.938 443.883 167.109C443.508 167.266 443.172 167.492 442.875 167.789C442.594 168.086 442.367 168.43 442.195 168.82C442.039 169.211 441.961 169.625 441.961 170.062V186H435.562V160.898H437.109L438.844 162.82C439.734 162.07 440.711 161.492 441.773 161.086C442.852 160.664 443.969 160.453 445.125 160.453C446.297 160.453 447.438 160.672 448.547 161.109C449.672 161.547 450.656 162.305 451.5 163.383C451.891 162.852 452.336 162.398 452.836 162.023C453.336 161.648 453.859 161.344 454.406 161.109C454.969 160.875 455.547 160.711 456.141 160.617C456.734 160.508 457.32 160.453 457.898 160.453C459.227 160.453 460.469 160.703 461.625 161.203C462.797 161.703 463.812 162.391 464.672 163.266C465.547 164.125 466.234 165.141 466.734 166.312C467.234 167.484 467.484 168.734 467.484 170.062V186ZM482.156 179.859C482.406 179.938 482.656 179.992 482.906 180.023C483.156 180.039 483.406 180.047 483.656 180.047C484.281 180.047 484.883 179.961 485.461 179.789C486.039 179.617 486.578 179.375 487.078 179.062C487.594 178.734 488.047 178.344 488.438 177.891C488.844 177.422 489.172 176.906 489.422 176.344L494.109 181.055C493.516 181.898 492.828 182.656 492.047 183.328C491.281 184 490.445 184.57 489.539 185.039C488.648 185.508 487.703 185.859 486.703 186.094C485.719 186.344 484.703 186.469 483.656 186.469C481.891 186.469 480.227 186.141 478.664 185.484C477.117 184.828 475.758 183.914 474.586 182.742C473.43 181.57 472.516 180.18 471.844 178.57C471.172 176.945 470.836 175.164 470.836 173.227C470.836 171.242 471.172 169.43 471.844 167.789C472.516 166.148 473.43 164.75 474.586 163.594C475.758 162.438 477.117 161.539 478.664 160.898C480.227 160.258 481.891 159.938 483.656 159.938C484.703 159.938 485.727 160.062 486.727 160.312C487.727 160.562 488.672 160.922 489.562 161.391C490.469 161.859 491.312 162.438 492.094 163.125C492.875 163.797 493.562 164.555 494.156 165.398L482.156 179.859ZM485.438 166.664C485.141 166.555 484.844 166.484 484.547 166.453C484.266 166.422 483.969 166.406 483.656 166.406C482.781 166.406 481.953 166.57 481.172 166.898C480.406 167.211 479.734 167.664 479.156 168.258C478.594 168.852 478.148 169.57 477.82 170.414C477.492 171.242 477.328 172.18 477.328 173.227C477.328 173.461 477.336 173.727 477.352 174.023C477.383 174.32 477.422 174.625 477.469 174.938C477.531 175.234 477.602 175.523 477.68 175.805C477.758 176.086 477.859 176.336 477.984 176.555L485.438 166.664Z" fill="white"/>
</g>
<g filter="url(#filter1_d_14_949)">
<mask id="path-2-outside-1_14_949" maskUnits="userSpaceOnUse" x="28" y="26" width="446" height="96" fill="black">
<rect fill="white" x="28" y="26" width="446" height="96"/>
<path d="M34.776 29.4H99.288C100.227 29.4 101.037 29.7413 101.72 30.424C102.403 31.1067 102.744 31.9173 102.744 32.856V52.312C102.744 53.2507 102.403 54.0613 101.72 54.744C101.037 55.4267 100.227 55.768 99.288 55.768H62.68V65.24H96.728C97.6667 65.24 98.4773 65.5813 99.16 66.264C99.8427 66.9467 100.184 67.7573 100.184 68.696V88.024C100.184 88.9627 99.8427 89.7733 99.16 90.456C98.4773 91.1387 97.6667 91.48 96.728 91.48H62.68V115.544C62.68 116.483 62.3387 117.293 61.656 117.976C60.9733 118.659 60.1627 119 59.224 119H34.776C33.8373 119 33.0267 118.659 32.344 117.976C31.6613 117.293 31.32 116.483 31.32 115.544V32.856C31.32 31.9173 31.6613 31.1067 32.344 30.424C33.0267 29.7413 33.8373 29.4 34.776 29.4ZM136.803 119H110.691C109.752 119 108.942 118.659 108.259 117.976C107.576 117.293 107.235 116.483 107.235 115.544V32.856C107.235 31.9173 107.576 31.1067 108.259 30.424C108.942 29.7413 109.752 29.4 110.691 29.4H136.803C137.742 29.4 138.552 29.7413 139.235 30.424C139.918 31.1067 140.259 31.9173 140.259 32.856V115.544C140.259 116.483 139.918 117.293 139.235 117.976C138.552 118.659 137.742 119 136.803 119ZM201.916 29.4H225.084C226.023 29.4 226.833 29.7413 227.516 30.424C228.199 31.1067 228.54 31.9173 228.54 32.856V115.544C228.54 116.483 228.199 117.293 227.516 117.976C226.833 118.659 226.023 119 225.084 119H204.86C202.641 119 200.892 118.019 199.612 116.056L177.98 83.416V115.544C177.98 116.483 177.639 117.293 176.956 117.976C176.273 118.659 175.463 119 174.524 119H151.356C150.417 119 149.607 118.659 148.924 117.976C148.241 117.293 147.9 116.483 147.9 115.544V32.856C147.9 31.9173 148.241 31.1067 148.924 30.424C149.607 29.7413 150.417 29.4 151.356 29.4H171.58C173.969 29.4 175.719 30.3813 176.828 32.344L198.46 67.8V32.856C198.46 31.9173 198.801 31.1067 199.484 30.424C200.167 29.7413 200.977 29.4 201.916 29.4ZM239.646 29.4H276.51C288.969 29.4 299.209 32.5147 307.23 38.744C315.337 44.888 319.39 53.5067 319.39 64.6V83.672C319.39 95.2773 315.465 104.067 307.614 110.04C299.763 116.013 289.438 119 276.638 119H239.646C238.707 119 237.897 118.659 237.214 117.976C236.531 117.293 236.19 116.483 236.19 115.544V32.856C236.19 31.9173 236.531 31.1067 237.214 30.424C237.897 29.7413 238.707 29.4 239.646 29.4ZM268.19 54.36V94.04H276.51C279.411 94.04 281.715 93.1867 283.422 91.48C285.214 89.688 286.11 87.0853 286.11 83.672V64.6C286.11 57.7733 282.91 54.36 276.51 54.36H268.19ZM382.213 119H356.101C355.162 119 354.352 118.659 353.669 117.976C352.986 117.293 352.645 116.483 352.645 115.544V32.856C352.645 31.9173 352.986 31.1067 353.669 30.424C354.352 29.7413 355.162 29.4 356.101 29.4H382.213C383.152 29.4 383.962 29.7413 384.645 30.424C385.328 31.1067 385.669 31.9173 385.669 32.856V115.544C385.669 116.483 385.328 117.293 384.645 117.976C383.962 118.659 383.152 119 382.213 119ZM392.286 29.4H467.294C468.233 29.4 469.043 29.7413 469.726 30.424C470.409 31.1067 470.75 31.9173 470.75 32.856V53.464C470.75 54.4027 470.409 55.2133 469.726 55.896C469.043 56.5787 468.233 56.92 467.294 56.92H446.046V115.544C446.046 116.483 445.705 117.293 445.022 117.976C444.339 118.659 443.529 119 442.59 119H416.99C416.051 119 415.241 118.659 414.558 117.976C413.875 117.293 413.534 116.483 413.534 115.544V56.92H392.286C391.347 56.92 390.537 56.5787 389.854 55.896C389.171 55.2133 388.83 54.4027 388.83 53.464V32.856C388.83 31.9173 389.171 31.1067 389.854 30.424C390.537 29.7413 391.347 29.4 392.286 29.4Z"/>
</mask>
<path d="M34.776 29.4H99.288C100.227 29.4 101.037 29.7413 101.72 30.424C102.403 31.1067 102.744 31.9173 102.744 32.856V52.312C102.744 53.2507 102.403 54.0613 101.72 54.744C101.037 55.4267 100.227 55.768 99.288 55.768H62.68V65.24H96.728C97.6667 65.24 98.4773 65.5813 99.16 66.264C99.8427 66.9467 100.184 67.7573 100.184 68.696V88.024C100.184 88.9627 99.8427 89.7733 99.16 90.456C98.4773 91.1387 97.6667 91.48 96.728 91.48H62.68V115.544C62.68 116.483 62.3387 117.293 61.656 117.976C60.9733 118.659 60.1627 119 59.224 119H34.776C33.8373 119 33.0267 118.659 32.344 117.976C31.6613 117.293 31.32 116.483 31.32 115.544V32.856C31.32 31.9173 31.6613 31.1067 32.344 30.424C33.0267 29.7413 33.8373 29.4 34.776 29.4ZM136.803 119H110.691C109.752 119 108.942 118.659 108.259 117.976C107.576 117.293 107.235 116.483 107.235 115.544V32.856C107.235 31.9173 107.576 31.1067 108.259 30.424C108.942 29.7413 109.752 29.4 110.691 29.4H136.803C137.742 29.4 138.552 29.7413 139.235 30.424C139.918 31.1067 140.259 31.9173 140.259 32.856V115.544C140.259 116.483 139.918 117.293 139.235 117.976C138.552 118.659 137.742 119 136.803 119ZM201.916 29.4H225.084C226.023 29.4 226.833 29.7413 227.516 30.424C228.199 31.1067 228.54 31.9173 228.54 32.856V115.544C228.54 116.483 228.199 117.293 227.516 117.976C226.833 118.659 226.023 119 225.084 119H204.86C202.641 119 200.892 118.019 199.612 116.056L177.98 83.416V115.544C177.98 116.483 177.639 117.293 176.956 117.976C176.273 118.659 175.463 119 174.524 119H151.356C150.417 119 149.607 118.659 148.924 117.976C148.241 117.293 147.9 116.483 147.9 115.544V32.856C147.9 31.9173 148.241 31.1067 148.924 30.424C149.607 29.7413 150.417 29.4 151.356 29.4H171.58C173.969 29.4 175.719 30.3813 176.828 32.344L198.46 67.8V32.856C198.46 31.9173 198.801 31.1067 199.484 30.424C200.167 29.7413 200.977 29.4 201.916 29.4ZM239.646 29.4H276.51C288.969 29.4 299.209 32.5147 307.23 38.744C315.337 44.888 319.39 53.5067 319.39 64.6V83.672C319.39 95.2773 315.465 104.067 307.614 110.04C299.763 116.013 289.438 119 276.638 119H239.646C238.707 119 237.897 118.659 237.214 117.976C236.531 117.293 236.19 116.483 236.19 115.544V32.856C236.19 31.9173 236.531 31.1067 237.214 30.424C237.897 29.7413 238.707 29.4 239.646 29.4ZM268.19 54.36V94.04H276.51C279.411 94.04 281.715 93.1867 283.422 91.48C285.214 89.688 286.11 87.0853 286.11 83.672V64.6C286.11 57.7733 282.91 54.36 276.51 54.36H268.19ZM382.213 119H356.101C355.162 119 354.352 118.659 353.669 117.976C352.986 117.293 352.645 116.483 352.645 115.544V32.856C352.645 31.9173 352.986 31.1067 353.669 30.424C354.352 29.7413 355.162 29.4 356.101 29.4H382.213C383.152 29.4 383.962 29.7413 384.645 30.424C385.328 31.1067 385.669 31.9173 385.669 32.856V115.544C385.669 116.483 385.328 117.293 384.645 117.976C383.962 118.659 383.152 119 382.213 119ZM392.286 29.4H467.294C468.233 29.4 469.043 29.7413 469.726 30.424C470.409 31.1067 470.75 31.9173 470.75 32.856V53.464C470.75 54.4027 470.409 55.2133 469.726 55.896C469.043 56.5787 468.233 56.92 467.294 56.92H446.046V115.544C446.046 116.483 445.705 117.293 445.022 117.976C444.339 118.659 443.529 119 442.59 119H416.99C416.051 119 415.241 118.659 414.558 117.976C413.875 117.293 413.534 116.483 413.534 115.544V56.92H392.286C391.347 56.92 390.537 56.5787 389.854 55.896C389.171 55.2133 388.83 54.4027 388.83 53.464V32.856C388.83 31.9173 389.171 31.1067 389.854 30.424C390.537 29.7413 391.347 29.4 392.286 29.4Z" fill="white"/>
<path d="M101.72 30.424L99.5987 32.5453L99.5987 32.5453L101.72 30.424ZM101.72 54.744L99.5987 52.6227L99.5987 52.6227L101.72 54.744ZM62.68 55.768V52.768H59.68V55.768H62.68ZM62.68 65.24H59.68V68.24H62.68V65.24ZM99.16 66.264L101.281 64.1427L101.281 64.1427L99.16 66.264ZM62.68 91.48V88.48H59.68V91.48H62.68ZM61.656 117.976L63.7773 120.097H63.7773L61.656 117.976ZM32.344 117.976L34.4653 115.855H34.4653L32.344 117.976ZM32.344 30.424L34.4653 32.5453H34.4653L32.344 30.424ZM34.776 32.4H99.288V26.4H34.776V32.4ZM99.288 32.4C99.3847 32.4 99.4233 32.4156 99.4358 32.4209C99.4501 32.4269 99.5049 32.4515 99.5987 32.5453L103.841 28.3027C102.614 27.0754 101.047 26.4 99.288 26.4V32.4ZM99.5987 32.5453C99.6925 32.6391 99.7171 32.694 99.7231 32.7082C99.7284 32.7207 99.744 32.7593 99.744 32.856H105.744C105.744 31.0966 105.069 29.53 103.841 28.3027L99.5987 32.5453ZM99.744 32.856V52.312H105.744V32.856H99.744ZM99.744 52.312C99.744 52.4087 99.7284 52.4473 99.7231 52.4598C99.7171 52.474 99.6925 52.5289 99.5987 52.6227L103.841 56.8653C105.069 55.638 105.744 54.0714 105.744 52.312H99.744ZM99.5987 52.6227C99.5049 52.7165 99.4501 52.7411 99.4358 52.7471C99.4233 52.7524 99.3847 52.768 99.288 52.768V58.768C101.047 58.768 102.614 58.0926 103.841 56.8653L99.5987 52.6227ZM99.288 52.768H62.68V58.768H99.288V52.768ZM59.68 55.768V65.24H65.68V55.768H59.68ZM62.68 68.24H96.728V62.24H62.68V68.24ZM96.728 68.24C96.8247 68.24 96.8633 68.2556 96.8758 68.2609C96.8901 68.2669 96.9449 68.2915 97.0387 68.3853L101.281 64.1427C100.054 62.9154 98.4874 62.24 96.728 62.24V68.24ZM97.0387 68.3853C97.1325 68.4791 97.1571 68.534 97.1631 68.5482C97.1684 68.5607 97.184 68.5993 97.184 68.696H103.184C103.184 66.9366 102.509 65.37 101.281 64.1427L97.0387 68.3853ZM97.184 68.696V88.024H103.184V68.696H97.184ZM97.184 88.024C97.184 88.1207 97.1684 88.1593 97.1631 88.1718C97.1571 88.186 97.1325 88.2409 97.0387 88.3347L101.281 92.5773C102.509 91.35 103.184 89.7833 103.184 88.024H97.184ZM97.0387 88.3347C96.9449 88.4285 96.8901 88.4531 96.8758 88.4591C96.8633 88.4644 96.8247 88.48 96.728 88.48V94.48C98.4874 94.48 100.054 93.8046 101.281 92.5773L97.0387 88.3347ZM96.728 88.48H62.68V94.48H96.728V88.48ZM59.68 91.48V115.544H65.68V91.48H59.68ZM59.68 115.544C59.68 115.641 59.6644 115.679 59.6591 115.692C59.6531 115.706 59.6285 115.761 59.5347 115.855L63.7773 120.097C65.0046 118.87 65.68 117.303 65.68 115.544H59.68ZM59.5347 115.855C59.4409 115.948 59.3861 115.973 59.3718 115.979C59.3593 115.984 59.3207 116 59.224 116V122C60.9834 122 62.55 121.325 63.7773 120.097L59.5347 115.855ZM59.224 116H34.776V122H59.224V116ZM34.776 116C34.6793 116 34.6407 115.984 34.6282 115.979C34.614 115.973 34.5591 115.948 34.4653 115.855L30.2227 120.097C31.45 121.325 33.0166 122 34.776 122V116ZM34.4653 115.855C34.3715 115.761 34.3469 115.706 34.3409 115.692C34.3356 115.679 34.32 115.641 34.32 115.544H28.32C28.32 117.303 28.9954 118.87 30.2227 120.097L34.4653 115.855ZM34.32 115.544V32.856H28.32V115.544H34.32ZM34.32 32.856C34.32 32.7593 34.3356 32.7207 34.3409 32.7082C34.3469 32.6939 34.3715 32.6391 34.4653 32.5453L30.2227 28.3027C28.9954 29.53 28.32 31.0966 28.32 32.856H34.32ZM34.4653 32.5453C34.5591 32.4515 34.614 32.4269 34.6282 32.4209C34.6407 32.4156 34.6793 32.4 34.776 32.4V26.4C33.0166 26.4 31.45 27.0754 30.2227 28.3027L34.4653 32.5453ZM108.259 117.976L110.38 115.855L108.259 117.976ZM108.259 30.424L110.38 32.5453L108.259 30.424ZM139.235 30.424L141.356 28.3027L141.356 28.3027L139.235 30.424ZM139.235 117.976L141.356 120.097L139.235 117.976ZM136.803 116H110.691V122H136.803V116ZM110.691 116C110.594 116 110.556 115.984 110.543 115.979C110.529 115.973 110.474 115.948 110.38 115.855L106.138 120.097C107.365 121.325 108.932 122 110.691 122V116ZM110.38 115.855C110.287 115.761 110.262 115.706 110.256 115.692C110.251 115.679 110.235 115.641 110.235 115.544H104.235C104.235 117.303 104.91 118.87 106.138 120.097L110.38 115.855ZM110.235 115.544V32.856H104.235V115.544H110.235ZM110.235 32.856C110.235 32.7593 110.251 32.7207 110.256 32.7082C110.262 32.6939 110.287 32.6391 110.38 32.5453L106.138 28.3027C104.91 29.53 104.235 31.0966 104.235 32.856H110.235ZM110.38 32.5453C110.474 32.4515 110.529 32.4269 110.543 32.4209C110.556 32.4156 110.594 32.4 110.691 32.4V26.4C108.932 26.4 107.365 27.0754 106.138 28.3027L110.38 32.5453ZM110.691 32.4H136.803V26.4H110.691V32.4ZM136.803 32.4C136.9 32.4 136.938 32.4156 136.951 32.4209C136.965 32.4269 137.02 32.4515 137.114 32.5453L141.356 28.3027C140.129 27.0754 138.562 26.4 136.803 26.4V32.4ZM137.114 32.5453C137.207 32.6391 137.232 32.6939 137.238 32.7082C137.243 32.7207 137.259 32.7593 137.259 32.856H143.259C143.259 31.0966 142.584 29.53 141.356 28.3027L137.114 32.5453ZM137.259 32.856V115.544H143.259V32.856H137.259ZM137.259 115.544C137.259 115.641 137.243 115.679 137.238 115.692C137.232 115.706 137.207 115.761 137.114 115.855L141.356 120.097C142.584 118.87 143.259 117.303 143.259 115.544H137.259ZM137.114 115.855C137.02 115.948 136.965 115.973 136.951 115.979C136.938 115.984 136.9 116 136.803 116V122C138.562 122 140.129 121.325 141.356 120.097L137.114 115.855ZM199.612 116.056L202.125 114.417L202.119 114.408L202.113 114.399L199.612 116.056ZM177.98 83.416L180.481 81.7587L174.98 73.4589V83.416H177.98ZM176.956 117.976L179.077 120.097H179.077L176.956 117.976ZM148.924 117.976L151.045 115.855L148.924 117.976ZM148.924 30.424L151.045 32.5453L148.924 30.424ZM176.828 32.344L174.216 33.8202L174.241 33.8637L174.267 33.9065L176.828 32.344ZM198.46 67.8L195.899 69.3625L201.46 78.4772V67.8H198.46ZM199.484 30.424L201.605 32.5453V32.5453L199.484 30.424ZM201.916 32.4H225.084V26.4H201.916V32.4ZM225.084 32.4C225.181 32.4 225.219 32.4156 225.232 32.4209C225.246 32.4269 225.301 32.4515 225.395 32.5453L229.637 28.3027C228.41 27.0754 226.843 26.4 225.084 26.4V32.4ZM225.395 32.5453C225.488 32.6391 225.513 32.694 225.519 32.7082C225.524 32.7207 225.54 32.7593 225.54 32.856H231.54C231.54 31.0966 230.865 29.53 229.637 28.3027L225.395 32.5453ZM225.54 32.856V115.544H231.54V32.856H225.54ZM225.54 115.544C225.54 115.641 225.524 115.679 225.519 115.692C225.513 115.706 225.488 115.761 225.395 115.855L229.637 120.097C230.865 118.87 231.54 117.303 231.54 115.544H225.54ZM225.395 115.855C225.301 115.948 225.246 115.973 225.232 115.979C225.219 115.984 225.181 116 225.084 116V122C226.843 122 228.41 121.325 229.637 120.097L225.395 115.855ZM225.084 116H204.86V122H225.084V116ZM204.86 116C203.721 116 202.888 115.588 202.125 114.417L197.099 117.695C198.896 120.45 201.561 122 204.86 122V116ZM202.113 114.399L180.481 81.7587L175.479 85.0733L197.111 117.713L202.113 114.399ZM174.98 83.416V115.544H180.98V83.416H174.98ZM174.98 115.544C174.98 115.641 174.964 115.679 174.959 115.692C174.953 115.706 174.928 115.761 174.835 115.855L179.077 120.097C180.305 118.87 180.98 117.303 180.98 115.544H174.98ZM174.835 115.855C174.741 115.948 174.686 115.973 174.672 115.979C174.659 115.984 174.621 116 174.524 116V122C176.283 122 177.85 121.325 179.077 120.097L174.835 115.855ZM174.524 116H151.356V122H174.524V116ZM151.356 116C151.259 116 151.221 115.984 151.208 115.979C151.194 115.973 151.139 115.948 151.045 115.855L146.803 120.097C148.03 121.325 149.597 122 151.356 122V116ZM151.045 115.855C150.952 115.761 150.927 115.706 150.921 115.692C150.916 115.679 150.9 115.641 150.9 115.544H144.9C144.9 117.303 145.575 118.87 146.803 120.097L151.045 115.855ZM150.9 115.544V32.856H144.9V115.544H150.9ZM150.9 32.856C150.9 32.7593 150.916 32.7207 150.921 32.7082C150.927 32.6939 150.952 32.6391 151.045 32.5453L146.803 28.3027C145.575 29.53 144.9 31.0966 144.9 32.856H150.9ZM151.045 32.5453C151.139 32.4515 151.194 32.4269 151.208 32.4209C151.221 32.4156 151.259 32.4 151.356 32.4V26.4C149.597 26.4 148.03 27.0754 146.803 28.3027L151.045 32.5453ZM151.356 32.4H171.58V26.4H151.356V32.4ZM171.58 32.4C172.967 32.4 173.677 32.8664 174.216 33.8202L179.44 30.8678C177.76 27.8962 174.971 26.4 171.58 26.4V32.4ZM174.267 33.9065L195.899 69.3625L201.021 66.2375L179.389 30.7815L174.267 33.9065ZM201.46 67.8V32.856H195.46V67.8H201.46ZM201.46 32.856C201.46 32.7593 201.476 32.7207 201.481 32.7082C201.487 32.694 201.512 32.6391 201.605 32.5453L197.363 28.3027C196.135 29.53 195.46 31.0966 195.46 32.856H201.46ZM201.605 32.5453C201.699 32.4515 201.754 32.4269 201.768 32.4209C201.781 32.4156 201.819 32.4 201.916 32.4V26.4C200.157 26.4 198.59 27.0754 197.363 28.3027L201.605 32.5453ZM307.23 38.744L305.39 41.1134L305.404 41.1242L305.418 41.1349L307.23 38.744ZM237.214 117.976L239.335 115.855L237.214 117.976ZM237.214 30.424L239.335 32.5453L237.214 30.424ZM268.19 54.36V51.36H265.19V54.36H268.19ZM268.19 94.04H265.19V97.04H268.19V94.04ZM283.422 91.48L281.301 89.3587L283.422 91.48ZM239.646 32.4H276.51V26.4H239.646V32.4ZM276.51 32.4C288.457 32.4 298.005 35.3786 305.39 41.1134L309.07 36.3746C300.412 29.6507 289.48 26.4 276.51 26.4V32.4ZM305.418 41.1349C312.701 46.6549 316.39 54.3474 316.39 64.6H322.39C322.39 52.6659 317.972 43.1211 309.042 36.3531L305.418 41.1349ZM316.39 64.6V83.672H322.39V64.6H316.39ZM316.39 83.672C316.39 94.5269 312.766 102.351 305.797 107.653L309.431 112.427C318.164 105.783 322.39 96.0278 322.39 83.672H316.39ZM305.797 107.653C298.606 113.124 288.978 116 276.638 116V122C289.898 122 300.921 118.902 309.431 112.427L305.797 107.653ZM276.638 116H239.646V122H276.638V116ZM239.646 116C239.549 116 239.511 115.984 239.498 115.979C239.484 115.973 239.429 115.948 239.335 115.855L235.093 120.097C236.32 121.325 237.887 122 239.646 122V116ZM239.335 115.855C239.242 115.761 239.217 115.706 239.211 115.692C239.206 115.679 239.19 115.641 239.19 115.544H233.19C233.19 117.303 233.865 118.87 235.093 120.097L239.335 115.855ZM239.19 115.544V32.856H233.19V115.544H239.19ZM239.19 32.856C239.19 32.7593 239.206 32.7207 239.211 32.7082C239.217 32.6939 239.242 32.6391 239.335 32.5453L235.093 28.3027C233.865 29.53 233.19 31.0966 233.19 32.856H239.19ZM239.335 32.5453C239.429 32.4515 239.484 32.4269 239.498 32.4209C239.511 32.4156 239.549 32.4 239.646 32.4V26.4C237.887 26.4 236.32 27.0754 235.093 28.3027L239.335 32.5453ZM265.19 54.36V94.04H271.19V54.36H265.19ZM268.19 97.04H276.51V91.04H268.19V97.04ZM276.51 97.04C280.035 97.04 283.163 95.9816 285.543 93.6013L281.301 89.3587C280.268 90.3918 278.788 91.04 276.51 91.04V97.04ZM285.543 93.6013C288.071 91.0734 289.11 87.5969 289.11 83.672H283.11C283.11 86.5738 282.357 88.3026 281.301 89.3587L285.543 93.6013ZM289.11 83.672V64.6H283.11V83.672H289.11ZM289.11 64.6C289.11 60.7707 288.216 57.3404 285.899 54.8682C283.547 52.3596 280.224 51.36 276.51 51.36V57.36C279.196 57.36 280.673 58.0671 281.521 58.9718C282.404 59.913 283.11 61.6026 283.11 64.6H289.11ZM276.51 51.36H268.19V57.36H276.51V51.36ZM353.669 117.976L355.79 115.855L353.669 117.976ZM353.669 30.424L355.79 32.5453L353.669 30.424ZM384.645 30.424L386.766 28.3027V28.3027L384.645 30.424ZM384.645 117.976L386.766 120.097L384.645 117.976ZM382.213 116H356.101V122H382.213V116ZM356.101 116C356.004 116 355.966 115.984 355.953 115.979C355.939 115.973 355.884 115.948 355.79 115.855L351.548 120.097C352.775 121.325 354.342 122 356.101 122V116ZM355.79 115.855C355.697 115.761 355.672 115.706 355.666 115.692C355.661 115.679 355.645 115.641 355.645 115.544H349.645C349.645 117.303 350.32 118.87 351.548 120.097L355.79 115.855ZM355.645 115.544V32.856H349.645V115.544H355.645ZM355.645 32.856C355.645 32.7593 355.661 32.7207 355.666 32.7082C355.672 32.6939 355.697 32.6391 355.79 32.5453L351.548 28.3027C350.32 29.53 349.645 31.0966 349.645 32.856H355.645ZM355.79 32.5453C355.884 32.4515 355.939 32.4269 355.953 32.4209C355.966 32.4156 356.004 32.4 356.101 32.4V26.4C354.342 26.4 352.775 27.0754 351.548 28.3027L355.79 32.5453ZM356.101 32.4H382.213V26.4H356.101V32.4ZM382.213 32.4C382.31 32.4 382.348 32.4156 382.361 32.4209C382.375 32.4269 382.43 32.4515 382.524 32.5453L386.766 28.3027C385.539 27.0754 383.972 26.4 382.213 26.4V32.4ZM382.524 32.5453C382.617 32.6391 382.642 32.6939 382.648 32.7082C382.653 32.7207 382.669 32.7593 382.669 32.856H388.669C388.669 31.0966 387.994 29.53 386.766 28.3027L382.524 32.5453ZM382.669 32.856V115.544H388.669V32.856H382.669ZM382.669 115.544C382.669 115.641 382.653 115.679 382.648 115.692C382.642 115.706 382.617 115.761 382.524 115.855L386.766 120.097C387.994 118.87 388.669 117.303 388.669 115.544H382.669ZM382.524 115.855C382.43 115.948 382.375 115.973 382.361 115.979C382.348 115.984 382.31 116 382.213 116V122C383.972 122 385.539 121.325 386.766 120.097L382.524 115.855ZM469.726 30.424L471.847 28.3027V28.3027L469.726 30.424ZM469.726 55.896L471.847 58.0173V58.0173L469.726 55.896ZM446.046 56.92V53.92H443.046V56.92H446.046ZM445.022 117.976L442.901 115.855V115.855L445.022 117.976ZM413.534 56.92H416.534V53.92H413.534V56.92ZM392.286 32.4H467.294V26.4H392.286V32.4ZM467.294 32.4C467.391 32.4 467.429 32.4156 467.442 32.4209C467.456 32.4269 467.511 32.4515 467.605 32.5453L471.847 28.3027C470.62 27.0754 469.053 26.4 467.294 26.4V32.4ZM467.605 32.5453C467.698 32.6391 467.723 32.6939 467.729 32.7082C467.734 32.7207 467.75 32.7593 467.75 32.856H473.75C473.75 31.0966 473.075 29.53 471.847 28.3027L467.605 32.5453ZM467.75 32.856V53.464H473.75V32.856H467.75ZM467.75 53.464C467.75 53.5607 467.734 53.5993 467.729 53.6118C467.723 53.6261 467.698 53.6809 467.605 53.7747L471.847 58.0173C473.075 56.79 473.75 55.2233 473.75 53.464H467.75ZM467.605 53.7747C467.511 53.8685 467.456 53.8931 467.442 53.8991C467.429 53.9044 467.391 53.92 467.294 53.92V59.92C469.053 59.92 470.62 59.2446 471.847 58.0173L467.605 53.7747ZM467.294 53.92H446.046V59.92H467.294V53.92ZM443.046 56.92V115.544H449.046V56.92H443.046ZM443.046 115.544C443.046 115.641 443.03 115.679 443.025 115.692C443.019 115.706 442.994 115.761 442.901 115.855L447.143 120.097C448.371 118.87 449.046 117.303 449.046 115.544H443.046ZM442.901 115.855C442.807 115.948 442.752 115.973 442.738 115.979C442.725 115.984 442.687 116 442.59 116V122C444.349 122 445.916 121.325 447.143 120.097L442.901 115.855ZM442.59 116H416.99V122H442.59V116ZM416.99 116C416.893 116 416.855 115.984 416.842 115.979C416.828 115.973 416.773 115.948 416.679 115.855L412.437 120.097C413.664 121.325 415.231 122 416.99 122V116ZM416.679 115.855C416.586 115.761 416.561 115.706 416.555 115.692C416.55 115.679 416.534 115.641 416.534 115.544H410.534C410.534 117.303 411.209 118.87 412.437 120.097L416.679 115.855ZM416.534 115.544V56.92H410.534V115.544H416.534ZM413.534 53.92H392.286V59.92H413.534V53.92ZM392.286 53.92C392.189 53.92 392.151 53.9044 392.138 53.8991C392.124 53.8931 392.069 53.8685 391.975 53.7747L387.733 58.0173C388.96 59.2446 390.527 59.92 392.286 59.92V53.92ZM391.975 53.7747C391.882 53.6809 391.857 53.626 391.851 53.6118C391.846 53.5993 391.83 53.5607 391.83 53.464H385.83C385.83 55.2233 386.505 56.79 387.733 58.0173L391.975 53.7747ZM391.83 53.464V32.856H385.83V53.464H391.83ZM391.83 32.856C391.83 32.7593 391.846 32.7207 391.851 32.7082C391.857 32.6939 391.882 32.6391 391.975 32.5453L387.733 28.3027C386.505 29.53 385.83 31.0966 385.83 32.856H391.83ZM391.975 32.5453C392.069 32.4515 392.124 32.4269 392.138 32.4209C392.151 32.4156 392.189 32.4 392.286 32.4V26.4C390.527 26.4 388.96 27.0754 387.733 28.3027L391.975 32.5453Z" fill="#1F3B5D" mask="url(#path-2-outside-1_14_949)"/>
</g>
<defs>
<filter id="filter0_d_14_949" x="0.148438" y="150.914" width="498.008" height="52.6953" filterUnits="userSpaceOnUse" color-interpolation-filters="sRGB">
<feFlood flood-opacity="0" result="BackgroundImageFix"/>
<feColorMatrix in="SourceAlpha" type="matrix" values="0 0 0 0 0 0 0 0 0 0 0 0 0 0 0 0 0 0 127 0" result="hardAlpha"/>
<feOffset dy="4"/>
<feGaussianBlur stdDeviation="2"/>
<feComposite in2="hardAlpha" operator="out"/>
<feColorMatrix type="matrix" values="0 0 0 0 0 0 0 0 0 0 0 0 0 0 0 0 0 0 0.25 0"/>
<feBlend mode="normal" in2="BackgroundImageFix" result="effect1_dropShadow_14_949"/>
<feBlend mode="normal" in="SourceGraphic" in2="effect1_dropShadow_14_949" result="shape"/>
</filter>
<filter id="filter1_d_14_949" x="31.32" y="29.4" width="439.43" height="99.6" filterUnits="userSpaceOnUse" color-interpolation-filters="sRGB">
<feFlood flood-opacity="0" result="BackgroundImageFix"/>
<feColorMatrix in="SourceAlpha" type="matrix" values="0 0 0 0 0 0 0 0 0 0 0 0 0 0 0 0 0 0 127 0" result="hardAlpha"/>
<feOffset dy="10"/>
<feComposite in2="hardAlpha" operator="out"/>
<feColorMatrix type="matrix" values="0 0 0 0 0.121569 0 0 0 0 0.231373 0 0 0 0 0.364706 0 0 0 1 0"/>
<feBlend mode="normal" in2="BackgroundImageFix" result="effect1_dropShadow_14_949"/>
<feBlend mode="normal" in="SourceGraphic" in2="effect1_dropShadow_14_949" result="shape"/>
</filter>
</defs>
</svg>
